<svg version="1" xmlns="http://www.w3.org/2000/svg" width="346.667" height="346.667" viewBox="0 0 260.000000 260.000000"><path d="M111.5.6c-42.8 6.3-81 34.4-99 73-3.9 8.3-7.3 17-7.9 20.1-.2 1-1.2 4.7-2.2 8.3-2.6 9.5-2.6 46.5 0 56 1 3.6 2 7.3 2.2 8.3 1 5.6 9.8 25.2 14.2 32.1 19.8 30.8 47.2 50.3 83.2 59.2 10.8 2.7 45.1 2.7 56 .1 11.5-2.8 18.5-5.4 30.5-11.3 25.1-12.4 45.6-32.8 57.9-57.9 6.5-13.2 7.8-16.5 10.8-28.1 2-7.9 2.2-11.3 2.2-30.9 0-22.8-.9-28.9-6.1-43-3.4-9-13.9-29.4-16.2-31.5-.4-.3-2.5-3.1-4.9-6.2-13-17.1-37-34.4-57.8-41.8-14-4.9-22.1-6.2-41.4-6.5-10.2-.2-19.8-.1-21.5.1zm68.4 33c5.5 1.1 10.9 8.4 12.4 16.9l.6 3-18.2-.3c-10-.2-21.6.1-25.7.5l-7.5.8-4.7 9.5C119.1 99.9 96.9 164.5 90 200.6l-1.2 6.2-3.7-1c-6.2-1.7-11.1-4.8-16.3-10-4.5-4.6-5-5.5-4.5-8.5.9-5 9.5-29.2 22.9-63.8 15.5-40.1 23.5-61.5 24-64 .1-1.1-.1-1.9-.7-1.8-7.1 1.1-29 2.4-34.8 2.2-6.3-.4-8-.9-11.1-3.3-5.1-3.8-7.1-8.8-6-14.4l.9-4.3 38.5-.4c30.3-.3 41.9-.8 54.5-2.3 18.1-2.2 22.9-2.5 27.4-1.6zm-2 53.6c7.5 3.6 13.1 8.9 16.5 15.6 3.4 6.7 4.1 11.3 2.6 18.3-2 9.2-7.5 16.7-24.8 33.9-17.1 16.9-21.8 23.6-22.9 33.1-.6 5.1-.6 5.1-3.7 4.5-4.3-.9-12.8-6.7-14.5-9.9-3.2-6.1 4-21.8 15.1-32.9 3.3-3.3 10.5-8.9 16.1-12.6 20.9-13.5 27.8-24.7 21.4-34.3-2.9-4.5-8.6-7.3-12-6-6.2 2.4-15.7 16.8-15.7 23.9v3.5l-6.4-.6c-6.9-.7-13.3-3.2-15-5.9-.7-1.2-.1-3.4 2.8-9.2 4.5-9.2 14.5-19.7 22-23.2 6.1-2.9 9.4-2.5 18.5 1.8zm-44.6 112.4c3.6 1.8 8.7 6.3 8.7 7.7 0 .5-2 4-4.5 7.8-4.4 6.9-4.5 6.9-9 6.9-8.5 0-11.9-7.2-8-16.7 3.1-7.4 6.5-8.9 12.8-5.7z"/></svg>