<svg version="1" xmlns="http://www.w3.org/2000/svg" width="933.333" height="933.333" viewBox="0 0 700.000000 700.000000"><path d="M289.5 3.5c-6.6 1.2-13.8 2.7-16 3.3-2.2.6-5.4 1.4-7.1 1.6-1.7.3-9 2.4-16.3 4.6-48.1 14.8-91.8 39-130.6 72.3-11.1 9.5-33 32.3-42.6 44.3-25.5 31.8-41.4 60.5-59.3 106.5-2.2 5.8-9 29.1-10.1 34.9-.2 1.2-.7 3.1-1.1 4.2-.3 1.1-.7 3-.9 4.1-.3 2.5-1.5 11.1-2.1 14.7-2.4 15.9-2.4 91.3.1 112.5 1.2 10.3 2 14.4 5 26 7.9 30.9 11.8 41.4 29.6 78 7 14.5 12.7 24.9 14 25.3.5.2.9.8.9 1.3 0 2.4 22.2 32 34 45.4 1.9 2.2 9.1 9.6 16 16.5 44 44.1 98.9 75.2 162.4 92 11.2 3 13.3 3.4 21.5 4.6 2.5.4 5.4.8 6.4 1 10.2 1.8 80.1 2.6 101.2 1.1 12.4-.9 28.5-3.2 36-5.2 2.8-.8 7.6-2.1 10.8-2.9 42.5-11.5 101.2-42 131.3-68.2 1.2-1.1 4.9-4.2 8.3-6.9 15.3-12.5 40.1-40 54.7-60.5 13.9-19.7 30.8-50.5 41.9-76.5 8.8-20.7 16-46 19-67 2.4-16.3 2.3-103.1-.1-120.2-.2-1.8-.6-5-.9-7-2.3-16.8-9.2-41.3-15.4-54.8-1-2.2-3.1-6.9-4.6-10.4-3.7-8.9-16.2-33.9-24.8-49.9-6-11.1-11.2-18.7-22-32.2-.7-.8-3.5-4.4-6.2-8-6-7.9-30.7-33-41.3-42.1-23.5-20-53.3-39.9-78.7-52.7C473.2 18.6 437.9 7.4 412 4.6c-3-.4-6.7-.9-8.2-1.1-5.5-1-25.5-1.6-63.3-2-37.1-.3-39.6-.2-51 2zm194 87c11.8 2.3 23.1 14 29.8 30.5 1.4 3.6 2.8 7.6 3.1 9 .2 1.4.9 4.5 1.5 7s1.1 5 1.1 5.6c0 .8-14.3 1.1-49.7 1-44.6-.1-69.3.5-76.1 1.9-1.3.2-4.5.5-7.2.6l-4.8.2-10 20.6c-30.2 61.9-58.5 133.4-86.5 218.6-11.4 34.6-26.1 84.4-31.1 105.5-.2.8-.9 3.5-1.6 6-.7 2.5-1.4 5.3-1.6 6.2-.2 1-.6 2.6-.8 3.6-.6 2.1-5.6 25-6.2 27.7-1.6 8-2.4 12.5-2.9 15.5-1.1 7.1-.8 6.9-7.8 4.9-14.9-4.2-23.6-8.3-33.1-15.4-7.4-5.5-16.5-14.2-22.1-21.1-4.6-5.6-4.7-5.9-4.2-11.3.3-3.1.7-6.3 1-7.1.2-.8.7-2.9 1.2-4.5 1.5-6.1 14.3-43.1 22-64 2-5.5 5.4-14.7 7.5-20.5 2.1-5.8 8.5-22.9 14.3-38 5.8-15.1 13.7-36.1 17.7-46.5 3.9-10.5 7.6-19.9 8.1-21 .9-2.1 24-62.4 28.9-75.5 1.5-4.1 6.2-16.5 10.3-27.5 10.8-28.9 15.5-42.8 14.9-44.5-.7-2-2.2-2.9-4.1-2.5-5.3 1-27.8 3-45.6 4-5.5.4-12.5.8-15.5 1-8.8.6-35.1.6-39.9-.1-5.4-.7-12.7-3-16.1-5.2-12.9-8.1-21-21.1-21-33.9 0-3.7 2.6-18.2 3.3-19 .2-.1 23.7-.5 52.3-.8 113.1-1.1 155.4-2.3 179.4-5 2.5-.2 7.2-.7 10.5-1 3.3-.3 8-.8 10.5-1 2.5-.3 6.5-.7 9-1 2.4-.2 7.8-.9 11.9-1.4 4.2-.6 11.2-1.3 15.6-1.6 4.4-.4 8.1-.7 8.2-.9.6-.5 22.3.2 25.8.9zm-22 137c2.8.9 10.4 4.3 17.1 7.5 25.7 12.4 42.5 31.1 50.8 56.3 5.4 16.4 3.1 35.7-6.6 55.2-8.8 17.6-19.9 30.8-62.5 74.1-13.9 14.1-24.2 25-31.7 33.4-10.1 11.3-19.4 26.3-22.9 37-2.5 7.5-3.1 10.1-4.3 19.5-.3 2.7-1 5.8-1.5 6.8-1.8 3.3-11.4 1.4-20.1-4-2.1-1.3-4.1-2.3-4.4-2.3-1.3 0-15.5-11.1-19-14.8-4.5-4.8-5.8-9-5.1-17.1 1.2-15.5 11-36.7 26.8-57.6 13.2-17.6 29.3-31.7 63.4-55.3 20.8-14.5 24.4-17.3 35.3-27.7 11.7-11.1 20.9-24.6 22.9-33.7 1.5-7 .6-16.2-2.3-22.4-3.4-7.2-12.1-16.1-18.9-19.4-6-2.9-14.5-3.2-19.1-.7-5.5 2.9-16 13.9-22.9 24.2-10.9 16.1-16 28.5-16.4 40.5-.3 7.4-.6 8.3-2.9 7.6-1-.3-5-.8-8.9-1.1-4-.4-7.8-.8-8.5-.9-.7-.2-3.5-.6-6.3-1.1-6.5-1-21.2-6.2-25-8.8-6.7-4.5-7.7-7.9-5-15.8 1.5-4.1 8.2-18 10.8-22.4 16.2-26.7 40.9-49.7 61.5-57.2 7.8-2.8 17.3-2.7 25.7.2zM355.6 535.9c10.1 4.5 26.4 18 26.4 21.9 0 2-8.9 17.1-16.8 28.6-6.8 10.1-8.6 11.1-18.4 10.9-4.6 0-9.8-.8-12.2-1.7-9.3-3.6-14.7-13.3-14.1-25.5.8-15.5 11.2-34.6 19.9-36.5 3.6-.8 10.6.3 15.2 2.3z"/></svg>